{"glyphs":{":":{"x_min":0,"x_max":335,"ha":335,"o":"m 128 151 q 160 151 183 128 q 206 105 206 73 q 206 40 183 18 q 160 -5 126 -5 q 95 -5 72 18 q 50 42 50 75 q 50 105 73 128 q 97 151 128 151 z m 178 454 q 211 454 233 431 q 256 408 256 374 q 256 344 233 321 q 209 298 178 298 q 146 298 123 322 q 100 345 100 377 q 100 409 123 431 q 146 454 178 454 z"},"$":{"x_min":0,"x_max":618,"ha":618,"o":"m 319 270 l 281 40 q 338 42 374 76 q 409 111 409 164 q 409 198 386 225 q 364 252 319 270 z m 338 663 q 281 662 248 632 q 214 601 214 551 q 214 510 234 484 q 254 458 300 441 z m 360 794 l 405 794 l 390 705 q 472 695 521 652 q 570 609 570 549 q 570 514 551 491 q 532 468 504 468 q 479 468 464 485 q 449 502 449 530 q 449 549 456 568 q 463 588 478 612 q 464 634 441 646 q 418 658 384 663 l 344 422 q 441 391 492 337 q 542 284 542 211 q 542 114 469 52 q 396 -9 278 -9 l 273 -9 l 255 -114 l 210 -114 l 228 -6 q 142 3 90 47 q 38 91 38 154 q 38 193 60 222 q 82 250 111 250 q 137 250 153 233 q 170 216 170 189 q 170 166 158 144 q 146 123 122 102 q 133 75 163 58 q 194 41 235 39 l 276 286 q 178 321 132 371 q 87 421 87 493 q 87 591 156 649 q 225 706 345 707 z"},"?":{"x_min":0,"x_max":503,"ha":503,"o":"m 208 151 q 240 151 263 128 q 286 105 286 73 q 286 40 263 18 q 240 -5 206 -5 q 175 -5 153 18 q 130 42 130 73 q 130 104 153 128 q 176 151 208 151 z m 247 203 l 202 211 q 211 292 254 365 l 256 368 q 259 373 264 380 q 323 478 323 547 q 323 607 299 640 q 274 673 228 673 q 193 673 168 652 q 143 632 139 600 q 164 591 178 572 q 193 552 193 528 q 193 504 179 489 q 165 474 142 474 q 111 474 91 499 q 70 523 70 561 q 70 626 125 674 q 181 722 258 722 q 344 722 400 671 q 456 619 456 540 q 456 485 432 440 q 408 396 329 323 q 288 286 271 260 q 255 234 247 203 z"},"<":{"x_min":0,"x_max":833,"ha":833,"o":"m 704 583 l 704 476 l 268 298 l 704 120 l 704 13 l 129 250 l 129 347 z"},"'":{"x_min":0,"x_max":178,"ha":178,"o":"m 99 416 l 79 416 l 40 641 q 39 647 39 651 q 38 656 38 659 q 38 685 52 700 q 65 715 89 715 q 112 715 126 701 q 139 687 139 661 q 139 653 139 649 q 139 645 138 641 z"},"=":{"x_min":0,"x_max":833,"ha":833,"o":"m 124 242 l 709 242 l 709 145 l 124 145 z m 124 452 l 709 452 l 709 355 l 124 355 z"},"a":{"x_min":0,"x_max":612,"ha":612,"o":"m 376 372 q 373 410 357 431 q 340 451 313 451 q 285 451 259 427 q 232 402 210 354 q 186 304 172 248 q 158 192 158 149 q 158 109 170 91 q 182 72 207 72 q 239 72 284 124 q 329 176 342 230 z m 396 434 l 415 493 l 544 493 l 458 137 q 454 121 452 110 q 450 100 450 92 q 450 78 457 69 q 464 61 476 61 q 495 61 514 81 q 533 102 551 141 l 582 127 q 551 59 508 25 q 465 -9 409 -9 q 365 -9 342 12 q 319 33 319 73 q 319 83 320 96 q 322 110 325 127 q 285 62 234 26 q 183 -9 129 -9 q 73 -9 41 30 q 9 69 9 139 q 9 201 31 264 q 54 327 94 379 q 136 434 187 463 q 238 493 289 493 q 329 493 355 479 q 382 464 396 434 z"},"L":{"x_min":0,"x_max":646,"ha":646,"o":"m 98 718 q 152 715 188 714 q 224 713 250 713 q 276 713 314 714 q 351 715 409 718 l 409 672 q 358 670 342 658 q 326 647 319 604 l 229 48 l 361 48 q 425 48 453 55 q 482 62 501 78 q 524 98 540 131 q 556 165 570 225 l 616 225 q 604 168 583 59 q 575 19 571 0 l 0 0 l 0 45 q 42 46 57 57 q 73 68 80 110 l 157 586 q 160 602 161 616 q 163 631 163 638 q 163 656 150 663 q 136 670 98 672 z"},"3":{"x_min":0,"x_max":618,"ha":618,"o":"m 322 349 q 438 345 492 306 q 545 268 545 187 q 545 99 471 43 q 397 -12 278 -12 q 166 -12 95 40 q 24 91 24 170 q 24 208 44 233 q 64 258 95 258 q 122 258 140 239 q 158 220 158 192 q 158 164 142 143 q 126 121 97 110 q 117 76 150 59 q 184 41 229 41 q 302 41 347 87 q 392 133 392 208 q 392 263 358 291 q 325 318 257 318 q 255 318 241 317 q 227 316 213 316 l 229 367 q 313 372 364 418 q 415 464 415 534 q 415 589 379 624 q 344 658 287 658 q 241 658 208 634 q 174 610 166 572 q 204 569 224 550 q 245 532 245 501 q 245 472 227 454 q 208 436 178 436 q 139 436 114 464 q 89 493 89 537 q 89 608 157 658 q 225 708 327 708 q 431 708 493 661 q 556 614 556 538 q 556 465 496 417 q 436 368 322 349 z"},";":{"x_min":0,"x_max":335,"ha":335,"o":"m 178 454 q 211 454 233 431 q 256 408 256 374 q 256 344 233 321 q 209 298 178 298 q 146 298 123 322 q 100 345 100 377 q 100 409 123 431 q 146 454 178 454 z m 17 -171 l 2 -139 q 64 -116 101 -84 q 138 -52 138 -21 q 138 -13 136 -10 q 134 -8 125 -8 l 117 -8 q 83 -8 63 11 q 44 30 44 65 q 44 103 67 127 q 90 151 125 151 q 166 151 191 123 q 216 95 216 49 q 216 -31 165 -88 q 113 -145 17 -171 z"},"J":{"x_min":0,"x_max":505,"ha":505,"o":"m 172 718 q 240 715 280 714 q 321 713 347 713 q 370 713 406 714 q 443 715 516 718 l 516 672 q 463 670 447 658 q 431 646 424 603 l 357 177 q 341 82 322 36 q 303 -10 270 -46 q 233 -86 183 -107 q 133 -128 76 -128 q 5 -128 -41 -93 q -86 -59 -86 -6 q -86 26 -66 47 q -47 67 -16 67 q 19 67 43 40 q 67 13 67 -27 q 67 -42 62 -70 l 61 -73 q 69 -76 75 -77 q 82 -78 87 -78 q 125 -78 146 -41 q 168 -4 183 88 l 262 586 q 265 605 267 620 q 269 634 269 637 q 269 657 252 664 q 235 672 188 672 l 172 672 z"},"V":{"x_min":0,"x_max":662,"ha":662,"o":"m 16 718 q 80 715 113 714 q 146 713 167 713 q 194 713 232 714 q 271 715 331 718 l 331 672 q 292 672 277 663 q 262 654 262 632 q 262 624 266 601 q 268 594 268 591 l 354 156 l 539 558 q 551 585 558 606 q 565 627 565 637 q 565 668 495 672 l 494 672 l 494 718 q 531 715 555 714 q 579 713 596 713 q 613 713 639 714 q 664 715 702 718 l 702 672 q 670 670 653 655 q 635 640 607 581 l 333 3 l 238 -9 l 103 599 q 92 648 76 659 q 60 669 16 672 z"},"\"":{"x_min":0,"x_max":345,"ha":345,"o":"m 265 416 l 245 416 l 206 641 q 205 647 205 651 q 204 656 204 659 q 204 685 218 700 q 231 715 255 715 q 279 715 292 700 q 306 686 306 661 q 306 658 306 654 q 305 649 304 641 z m 99 416 l 79 416 l 40 641 q 40 645 39 648 q 39 652 39 659 q 39 685 53 700 q 66 715 89 715 q 112 715 126 701 q 139 687 139 661 q 139 653 139 649 q 139 645 138 641 z"},"7":{"x_min":0,"x_max":618,"ha":618,"o":"m 138 712 l 173 706 l 153 621 q 182 677 201 691 q 220 706 252 706 q 294 706 379 693 q 463 680 503 680 q 534 680 553 687 q 572 694 584 710 l 620 691 q 585 615 487 450 q 389 285 363 187 q 349 135 339 57 q 330 -18 308 -18 q 303 -18 297 -15 q 291 -13 277 -3 l 222 39 q 209 48 204 58 q 199 68 199 85 q 199 126 242 204 q 286 282 364 378 q 428 456 466 513 q 504 570 522 615 q 500 590 477 578 q 455 566 431 566 q 401 566 337 574 q 273 582 239 582 q 192 582 167 561 q 142 539 111 471 l 74 490 q 91 545 107 600 q 123 656 138 712 z"},"S":{"x_min":0,"x_max":609,"ha":609,"o":"m 513 662 l 529 697 l 569 697 q 559 648 551 596 q 543 544 538 485 l 493 485 l 493 488 q 493 581 454 630 q 416 678 341 678 q 288 678 256 649 q 224 620 224 572 q 224 512 346 439 q 363 429 372 423 q 468 365 505 317 q 542 269 542 207 q 542 112 470 52 q 399 -9 286 -9 q 226 -9 174 8 q 123 25 80 60 l 69 19 l 25 19 q 38 79 46 140 q 54 201 58 262 l 104 262 q 103 255 103 247 q 102 238 102 223 q 102 138 146 88 q 189 38 264 38 q 318 38 352 69 q 386 99 386 148 q 386 226 257 305 q 239 316 229 322 q 139 378 108 419 q 76 461 76 514 q 76 606 144 667 q 212 727 319 727 q 372 727 420 711 q 467 695 513 662 z"},"}":{"x_min":0,"x_max":500,"ha":500,"o":"m 84 740 q 199 740 241 705 q 283 669 283 571 l 283 477 q 283 396 311 366 q 338 336 414 329 l 414 292 q 338 285 311 255 q 283 225 283 144 l 283 50 q 283 -47 242 -83 q 200 -119 90 -119 l 84 -119 l 84 -90 q 142 -89 164 -63 q 186 -38 186 39 l 186 105 q 186 215 212 255 q 238 294 308 310 q 238 326 212 366 q 186 406 186 516 l 186 581 q 186 657 164 683 q 142 709 84 710 z"},"Z":{"x_min":0,"x_max":699,"ha":699,"o":"m 92 725 q 134 722 180 720 q 226 718 275 718 l 663 718 l 215 50 l 396 50 q 499 50 539 84 q 580 119 598 216 l 641 216 q 630 160 621 104 q 611 49 604 -6 q 549 -3 501 -1 q 454 0 425 0 l -1 0 l 447 668 l 325 668 q 201 668 166 639 q 131 609 117 527 l 74 527 q 83 589 87 637 q 91 685 92 725 z"},"x":{"x_min":0,"x_max":597,"ha":597,"o":"m 339 320 q 386 407 427 448 q 468 490 507 490 q 534 490 548 473 q 562 456 562 425 q 562 413 559 384 q 558 370 557 362 l 523 362 q 524 374 525 384 q 526 394 526 400 q 526 422 518 432 q 510 442 492 442 q 468 442 441 411 q 413 381 352 279 q 354 270 356 252 q 388 62 433 62 q 454 62 474 83 q 495 103 516 145 l 541 126 q 508 59 462 25 q 416 -10 360 -10 q 305 -10 274 33 q 244 76 230 176 q 176 88 127 41 q 77 -7 38 -7 q 18 -7 6 7 q -6 20 -6 44 q -6 62 0 87 q 5 112 17 146 l 50 146 q 42 120 39 100 q 35 81 35 70 q 35 60 41 53 q 46 47 56 47 q 80 47 124 92 q 168 136 216 212 q 214 227 210 254 q 188 429 141 429 q 121 429 100 412 q 78 394 56 360 l 29 378 q 63 432 113 462 q 162 491 218 491 q 277 491 304 453 q 332 414 339 320 z"},")":{"x_min":0,"x_max":421,"ha":421,"o":"m 101 750 q 203 639 256 521 q 308 404 308 288 q 308 119 221 -14 q 135 -147 -26 -225 l -46 -192 q 70 -127 137 10 q 204 146 204 320 q 204 425 171 527 q 138 630 73 723 z"},"&":{"x_min":0,"x_max":765,"ha":765,"o":"m 332 414 l 316 374 q 304 375 293 378 q 283 381 273 386 q 229 368 203 323 q 177 277 177 221 q 177 145 226 95 q 276 46 353 46 q 441 46 497 97 q 552 149 552 230 q 552 253 546 276 q 541 298 530 320 q 509 323 492 325 q 475 326 461 326 q 438 326 422 317 q 406 308 396 290 q 416 277 427 259 q 437 240 437 217 q 437 189 422 173 q 407 156 382 156 q 355 156 338 177 q 321 199 321 234 q 321 300 374 339 q 426 378 517 378 q 548 378 597 375 q 647 371 666 371 q 694 371 708 379 q 721 387 732 409 l 759 398 q 743 344 725 326 q 708 309 666 309 q 655 309 637 310 q 619 311 596 313 q 603 288 605 270 q 608 252 608 235 q 608 124 525 58 q 442 -9 301 -9 q 179 -9 106 48 q 33 105 33 201 q 33 280 86 336 q 138 392 230 409 q 165 423 131 458 q 98 492 98 546 q 98 625 163 676 q 229 727 331 727 q 419 727 479 686 q 539 644 539 587 q 539 561 524 545 q 508 530 482 530 q 452 530 437 553 q 422 577 422 624 q 422 626 422 633 q 423 639 423 644 q 423 661 404 671 q 385 681 354 681 q 301 681 271 643 q 240 604 240 539 q 240 493 263 462 q 286 431 332 414 z"},"_":{"x_min":0,"x_max":500,"ha":500,"o":"m 0 -136 l 500 -136 l 500 -236 l 0 -236 z"},"v":{"x_min":0,"x_max":545,"ha":545,"o":"m 291 492 l 322 484 q 272 350 250 266 q 227 182 227 133 q 227 94 241 76 q 254 58 284 58 q 319 58 354 91 q 390 123 417 180 q 434 214 444 253 q 454 292 454 314 q 454 320 427 359 q 401 397 401 431 q 401 455 415 470 q 429 485 450 485 q 478 485 492 459 q 506 434 506 385 q 506 325 485 255 q 464 184 429 125 q 391 62 338 27 q 285 -9 230 -9 q 163 -9 125 31 q 86 70 86 140 q 86 210 126 279 q 166 347 263 440 q 226 417 195 406 q 163 394 136 394 q 123 394 100 401 q 78 407 67 407 q 49 407 33 395 q 18 383 0 354 l -26 374 q 9 433 40 459 q 71 485 106 485 q 124 485 166 475 q 208 465 231 465 q 249 465 263 471 q 278 478 291 492 z"},"O":{"x_min":0,"x_max":780,"ha":780,"o":"m 431 726 q 570 726 659 635 q 747 544 747 399 q 747 327 726 261 q 704 196 663 142 q 607 69 527 30 q 446 -10 355 -10 q 212 -10 123 81 q 33 172 33 318 q 33 391 54 456 q 76 522 117 575 q 174 648 254 687 q 335 726 431 726 z m 430 678 q 384 678 345 651 q 307 624 277 571 q 244 511 225 426 q 205 340 205 253 q 205 149 242 94 q 278 39 347 39 q 392 39 430 64 q 468 89 498 139 q 534 199 555 288 q 576 377 576 473 q 576 571 538 625 q 500 678 430 678 z"},"(":{"x_min":0,"x_max":421,"ha":421,"o":"m 417 750 l 437 717 q 321 653 254 516 q 186 378 186 206 q 186 101 220 -2 q 253 -105 318 -198 l 289 -225 q 187 -113 134 4 q 82 121 82 237 q 82 405 169 539 q 256 673 417 750 z"},"C":{"x_min":0,"x_max":698,"ha":698,"o":"m 638 642 l 656 683 l 697 681 q 687 631 678 577 q 669 523 659 457 l 614 457 q 615 476 616 489 q 617 501 617 506 q 617 581 575 626 q 533 672 463 672 q 349 672 281 570 q 212 468 212 300 q 212 179 260 115 q 307 51 397 51 q 464 51 515 88 q 567 125 603 200 l 643 180 q 600 85 526 38 q 453 -9 348 -9 q 203 -9 118 77 q 33 163 33 310 q 33 491 145 609 q 257 727 428 727 q 491 727 544 706 q 598 684 638 642 z"},"W":{"x_min":0,"x_max":1063,"ha":1063,"o":"m 18 718 q 82 715 115 714 q 148 713 169 713 q 196 713 234 714 q 271 715 332 718 l 332 672 q 293 672 279 663 q 264 654 264 632 q 264 625 265 615 q 267 604 269 591 l 351 156 l 533 567 l 527 599 q 520 644 503 657 q 486 669 442 672 l 442 718 q 506 715 539 714 q 572 713 593 713 q 620 713 659 714 q 697 715 757 718 l 757 672 q 718 672 703 663 q 688 654 688 631 q 688 625 689 616 q 690 607 693 591 l 756 159 l 939 558 q 951 585 958 606 q 965 627 965 637 q 965 668 895 672 l 894 672 l 894 718 q 931 715 955 714 q 979 713 996 713 q 1013 713 1038 714 q 1062 715 1101 718 l 1101 672 q 1071 670 1053 656 q 1035 641 1007 581 l 732 3 l 638 -9 l 548 484 l 330 3 l 236 -9 l 104 599 q 93 648 78 659 q 62 669 18 672 z"},"A":{"x_min":0,"x_max":645,"ha":645,"o":"m 316 595 l 177 302 l 356 302 z m 444 731 l 540 146 l 541 140 q 556 50 629 46 l 629 0 q 558 3 526 4 q 495 5 478 5 q 450 5 411 4 q 372 2 311 0 l 311 46 q 356 48 370 58 q 383 68 383 97 q 383 108 382 117 q 381 126 380 135 l 362 253 l 155 253 l 94 127 q 87 113 83 101 q 80 89 80 79 q 80 60 92 53 q 104 47 145 46 l 145 0 q 99 3 77 4 q 55 5 41 5 q 26 5 4 4 q -19 3 -61 0 l -61 46 q -26 47 -4 65 q 18 84 50 151 l 277 620 q 297 643 314 667 q 331 691 344 718 z"},"f":{"x_min":0,"x_max":370,"ha":370,"o":"m 262 450 l 383 450 l 375 404 l 255 404 l 225 217 q 202 68 183 -18 q 164 -104 141 -170 l -8 -213 q 17 -143 39 -37 q 62 68 88 235 l 115 404 l 18 404 l 26 450 l 122 450 q 136 588 203 666 q 270 744 374 744 q 439 744 478 714 q 516 685 516 636 q 516 604 499 585 q 481 565 454 565 q 426 565 409 583 q 392 600 392 629 q 392 644 397 661 q 402 678 402 680 q 402 688 393 695 q 384 701 372 701 q 331 701 309 657 q 287 613 262 450 z"},"Q":{"x_min":0,"x_max":780,"ha":780,"o":"m 495 134 q 535 192 558 278 q 581 364 581 456 q 581 560 543 618 q 504 677 437 677 q 383 677 339 642 q 294 608 262 541 q 233 481 218 409 q 202 337 202 263 q 202 236 206 210 q 210 185 219 160 q 259 185 294 197 q 330 209 364 209 q 407 209 438 191 q 470 173 495 134 z m 413 50 q 405 96 382 117 q 358 139 316 139 q 298 139 279 134 q 259 128 237 117 q 252 80 282 60 q 312 40 352 40 q 365 40 379 42 q 394 45 413 50 z m 545 39 q 557 -9 583 -31 q 609 -53 653 -53 q 676 -53 697 -46 q 718 -39 742 -23 l 742 -65 q 705 -94 663 -110 q 621 -126 580 -126 q 518 -126 475 -93 q 432 -61 420 -4 q 397 -6 378 -8 q 359 -9 343 -9 q 209 -9 122 83 q 34 176 34 318 q 34 410 71 493 q 108 576 175 634 q 227 678 291 702 q 355 725 425 725 q 567 725 656 631 q 744 537 744 386 q 744 277 692 186 q 640 95 545 39 z"},"w":{"x_min":0,"x_max":812,"ha":812,"o":"m 291 492 l 322 484 q 272 350 250 263 q 227 176 227 122 q 227 94 237 80 q 246 67 266 67 q 309 67 355 158 q 402 250 439 409 l 454 476 l 575 476 q 539 333 524 258 q 509 184 509 148 q 509 107 522 87 q 535 67 562 67 q 593 67 627 102 q 660 137 687 199 q 702 233 711 267 q 720 301 720 315 q 720 321 695 359 q 670 397 670 428 q 670 454 684 469 q 697 485 719 485 q 746 485 760 463 q 774 440 774 399 q 774 344 755 275 q 737 206 706 147 q 667 74 610 32 q 554 -10 495 -10 q 449 -10 424 17 q 398 43 398 91 q 398 113 402 140 q 407 167 416 200 q 371 89 322 40 q 273 -10 212 -10 q 155 -10 121 30 q 86 69 86 134 q 86 206 127 277 q 167 348 263 440 q 226 417 195 406 q 163 394 136 394 q 123 394 100 401 q 78 407 67 407 q 49 407 33 395 q 18 383 0 354 l -26 374 q 9 433 40 459 q 71 485 106 485 q 124 485 166 475 q 208 465 231 465 q 249 465 263 471 q 278 478 291 492 z"},"-":{"x_min":0,"x_max":316,"ha":316,"o":"m 34 300 l 275 300 l 255 197 l 14 197 z"},"E":{"x_min":0,"x_max":711,"ha":711,"o":"m 98 718 l 649 718 l 649 515 l 603 515 l 603 532 q 603 613 577 642 q 551 670 473 670 l 329 670 l 284 395 l 325 395 q 398 395 423 416 q 448 437 457 498 l 500 498 q 488 437 478 371 q 468 304 461 228 l 418 228 q 418 233 419 242 q 422 270 422 281 q 422 321 406 334 q 390 347 334 347 l 276 347 l 228 48 l 386 48 q 449 48 478 55 q 506 62 526 78 q 547 96 562 126 q 578 157 595 216 l 641 216 q 628 164 617 110 q 606 56 596 0 l 0 0 l 0 48 q 42 48 58 59 q 73 69 80 110 l 157 586 q 160 602 161 616 q 163 630 163 638 q 163 656 149 663 q 135 670 98 670 z"},"s":{"x_min":0,"x_max":454,"ha":454,"o":"m 316 428 q 303 440 285 446 q 268 452 247 452 q 211 452 190 435 q 170 417 170 387 q 170 345 241 311 q 251 306 256 304 q 326 270 354 236 q 382 202 382 153 q 382 79 328 35 q 273 -9 182 -9 q 101 -9 51 24 q 1 57 1 110 q 1 140 18 160 q 35 179 61 179 q 85 179 100 164 q 115 148 115 124 q 115 109 107 91 q 99 73 99 70 q 99 55 122 44 q 145 32 178 32 q 217 32 241 51 q 264 69 264 101 q 264 146 188 183 q 175 189 169 192 q 106 223 79 255 q 52 288 52 333 q 52 406 104 450 q 157 494 245 494 q 321 494 368 463 q 416 432 416 384 q 416 357 400 341 q 385 324 359 324 q 334 324 319 339 q 303 354 303 378 q 303 388 306 400 q 310 413 316 428 z"},">":{"x_min":0,"x_max":833,"ha":833,"o":"m 129 583 l 704 347 l 704 250 l 129 13 l 129 120 l 566 298 l 129 476 z"},"l":{"x_min":0,"x_max":340,"ha":340,"o":"m 316 743 l 184 131 l 183 126 q 177 94 177 86 q 177 72 185 63 q 192 54 205 54 q 224 54 245 77 q 267 100 289 143 l 319 128 q 283 57 242 24 q 201 -9 148 -9 q 96 -9 67 16 q 38 40 38 84 q 38 93 40 105 q 42 118 47 141 l 147 607 q 150 622 152 636 q 154 650 154 662 q 154 695 98 698 q 89 699 84 699 l 92 739 q 107 739 138 737 q 169 736 183 736 q 205 736 235 738 q 264 739 316 743 z"},"8":{"x_min":0,"x_max":618,"ha":618,"o":"m 261 319 q 208 293 182 258 q 157 222 157 173 q 157 111 189 75 q 221 38 275 38 q 328 38 364 74 q 399 111 399 165 q 399 219 366 255 q 333 292 261 319 z m 418 376 q 482 350 513 308 q 545 266 545 208 q 545 112 468 51 q 390 -10 268 -10 q 157 -10 91 41 q 25 91 25 174 q 25 243 72 289 q 120 334 209 353 q 150 377 123 415 q 95 452 95 507 q 95 596 162 652 q 228 708 336 708 q 441 708 503 660 q 565 613 565 534 q 565 478 529 440 q 494 401 418 376 z m 367 406 q 407 432 426 469 q 446 505 446 554 q 446 602 418 632 q 390 661 344 661 q 294 661 262 629 q 229 597 229 548 q 229 498 263 463 q 296 429 367 406 z"},"\\":{"x_min":0,"x_max":340,"ha":340,"o":"m 35 727 l 102 727 l 323 -93 l 256 -93 z"},"e":{"x_min":0,"x_max":513,"ha":513,"o":"m 177 238 q 171 211 169 187 q 166 162 166 141 q 166 92 185 69 q 204 45 244 45 q 290 45 332 74 q 373 103 402 156 l 431 136 q 395 65 336 28 q 278 -10 204 -10 q 117 -10 66 42 q 15 95 15 184 q 15 312 107 403 q 199 494 334 494 q 403 494 442 467 q 480 440 480 392 q 480 320 401 279 q 322 238 182 238 z m 184 278 q 269 280 311 310 q 354 340 354 397 q 354 421 341 435 q 328 449 305 449 q 262 449 233 407 q 203 366 184 278 z"},"b":{"x_min":0,"x_max":578,"ha":578,"o":"m 165 92 q 164 84 163 80 q 162 75 162 73 q 162 55 176 44 q 189 33 211 33 q 252 33 283 61 q 314 88 344 151 q 369 205 384 260 q 398 316 398 355 q 398 389 387 404 q 375 419 350 419 q 316 419 274 367 q 232 315 192 222 z m 294 743 l 211 339 q 250 412 299 450 q 348 489 402 489 q 467 489 503 447 q 539 405 539 328 q 539 266 518 208 q 497 150 457 102 q 411 46 354 19 q 298 -9 232 -9 q 200 -9 171 -1 q 142 6 112 22 l 21 -5 l -9 10 q 6 34 17 62 q 27 89 35 132 l 128 606 q 131 624 133 638 q 135 653 135 662 q 135 695 77 698 q 70 699 66 699 l 73 738 q 81 738 94 737 q 145 736 163 736 q 189 736 220 738 q 251 739 294 743 z"},"%":{"x_min":0,"x_max":884,"ha":884,"o":"m 669 385 q 632 385 614 341 q 596 297 596 206 q 596 115 614 71 q 632 27 669 27 q 706 27 724 71 q 742 115 742 206 q 742 297 724 341 q 706 385 669 385 z m 215 672 q 178 672 160 628 q 142 584 142 493 q 142 402 160 358 q 178 314 215 314 q 252 314 270 358 q 288 402 288 493 q 288 584 270 628 q 252 672 215 672 z m 669 421 q 750 421 798 362 q 847 303 847 206 q 847 109 798 50 q 750 -9 669 -9 q 589 -9 540 50 q 491 109 491 206 q 491 303 540 362 q 589 421 669 421 z m 215 708 q 295 708 345 649 q 394 590 394 493 q 394 396 345 337 q 295 278 215 278 q 135 278 86 337 q 37 396 37 493 q 37 590 86 649 q 135 708 215 708 z m 638 708 l 698 708 l 246 -9 l 186 -9 z"},"m":{"x_min":0,"x_max":935,"ha":935,"o":"m 248 322 q 304 409 356 448 q 407 487 465 487 q 503 487 526 467 q 549 447 549 414 q 549 400 545 381 q 542 363 534 335 q 591 417 640 452 q 688 487 745 487 q 792 487 819 461 q 846 435 846 391 q 846 374 842 352 q 838 331 829 303 l 773 129 q 768 111 765 100 q 763 89 763 81 q 763 68 771 61 q 778 53 791 53 q 810 53 832 76 q 854 99 876 142 l 906 127 q 871 56 829 24 q 787 -9 730 -9 q 679 -9 650 15 q 621 39 621 81 q 621 95 624 109 q 626 123 631 138 l 691 325 q 698 346 701 363 q 705 380 705 391 q 705 405 698 412 q 692 419 679 419 q 642 419 586 347 q 530 276 511 192 l 469 0 l 328 0 l 410 336 q 415 355 417 368 q 419 380 419 388 q 419 404 414 411 q 408 419 397 419 q 361 419 306 347 q 251 275 233 192 l 190 0 l 49 0 l 128 355 q 130 366 132 376 q 133 386 133 395 q 133 411 126 419 q 120 428 109 428 q 88 428 65 408 q 42 388 17 346 l -11 365 q 25 427 70 457 q 114 487 171 487 q 216 487 240 467 q 263 447 263 409 q 263 397 260 378 q 256 359 248 322 z"},"#":{"x_min":0,"x_max":769,"ha":769,"o":"m 344 416 l 300 293 l 429 293 l 472 416 z m 347 715 l 452 715 l 380 512 l 504 512 l 577 715 l 681 715 l 609 512 l 747 512 l 711 415 l 575 415 l 532 294 l 675 294 l 640 198 l 498 198 l 426 -5 l 321 -5 l 393 198 l 269 198 l 196 -5 l 91 -5 l 163 198 l 22 198 l 58 294 l 198 294 l 241 415 l 93 415 l 129 512 l 275 512 z"},",":{"x_min":0,"x_max":309,"ha":309,"o":"m 17 -171 l 2 -139 q 64 -116 101 -84 q 138 -52 138 -21 q 138 -13 136 -10 q 134 -8 125 -8 l 117 -8 q 83 -8 63 11 q 44 30 44 65 q 44 103 67 127 q 90 151 125 151 q 166 151 191 123 q 216 95 216 49 q 216 -31 165 -88 q 113 -145 17 -171 z"},"n":{"x_min":0,"x_max":655,"ha":655,"o":"m 248 322 q 304 410 356 448 q 407 487 466 487 q 512 487 540 461 q 568 435 568 391 q 568 375 564 354 q 560 333 550 303 l 495 129 l 494 126 q 484 92 484 81 q 484 68 492 61 q 500 53 512 53 q 531 53 553 76 q 575 99 597 142 l 627 127 q 591 55 550 23 q 509 -9 452 -9 q 401 -9 371 16 q 342 40 342 82 q 342 94 344 108 q 347 123 352 138 l 412 325 q 420 351 424 366 q 427 381 427 391 q 427 405 420 412 q 414 419 401 419 q 363 419 307 347 q 251 276 233 192 l 190 0 l 49 0 l 128 355 q 130 366 132 376 q 133 386 133 395 q 133 411 126 419 q 120 428 109 428 q 88 428 65 408 q 42 388 17 346 l -11 365 q 25 427 70 457 q 114 487 171 487 q 216 487 240 467 q 263 447 263 409 q 263 397 260 378 q 256 359 248 322 z"},"h":{"x_min":0,"x_max":619,"ha":619,"o":"m 306 743 l 220 338 q 273 417 322 452 q 372 487 428 487 q 475 487 502 461 q 529 435 529 391 q 529 374 525 352 q 521 331 512 303 l 456 129 q 451 111 448 100 q 446 88 446 81 q 446 68 453 61 q 460 53 473 53 q 493 53 515 76 q 537 99 559 142 l 588 127 q 554 56 512 24 q 470 -9 413 -9 q 362 -9 333 16 q 303 40 303 82 q 303 93 306 107 q 309 121 314 138 l 374 325 q 381 346 385 363 q 388 380 388 391 q 388 405 382 412 q 375 419 362 419 q 325 419 268 347 q 212 274 194 192 l 153 0 l 17 0 l 141 606 q 145 625 146 638 q 148 650 148 661 q 148 695 89 698 q 82 699 78 699 l 85 738 q 92 738 106 737 q 157 736 175 736 q 200 736 230 738 q 260 739 306 743 z"},"z":{"x_min":0,"x_max":491,"ha":491,"o":"m 418 491 l 441 473 q 377 374 251 255 q 124 136 93 93 q 123 114 145 123 q 167 132 188 132 q 218 132 278 115 q 338 99 366 99 q 390 99 401 115 q 412 130 415 168 l 445 164 q 439 71 415 31 q 390 -10 340 -10 q 307 -10 219 15 q 131 39 85 39 q 65 39 50 29 q 34 19 20 -3 l -3 19 q 55 128 191 259 q 327 390 355 422 q 315 397 287 386 q 260 375 238 375 q 215 375 175 383 q 134 390 118 390 q 96 390 81 379 q 65 367 47 336 l 21 351 q 52 422 90 458 q 127 493 170 493 q 188 493 251 482 q 313 470 355 470 q 379 470 394 475 q 408 480 418 491 z"},"B":{"x_min":0,"x_max":697,"ha":697,"o":"m 269 334 l 223 47 q 242 45 259 45 q 276 44 291 44 q 375 44 413 85 q 451 126 451 216 q 451 277 420 306 q 389 334 320 334 z m 416 362 q 510 353 562 307 q 613 262 613 187 q 613 94 550 44 q 486 -5 366 -5 q 332 -5 249 -2 q 167 1 119 1 q 89 1 62 1 q 34 0 5 0 l 5 44 q 43 46 58 58 q 73 69 80 110 l 157 586 q 160 602 161 616 q 163 631 163 638 q 163 655 150 663 q 137 670 98 673 l 98 719 q 136 717 167 717 q 197 716 221 716 q 269 716 332 718 q 396 719 411 719 q 522 719 578 677 q 634 636 634 553 q 634 468 576 417 q 519 367 416 362 z m 278 388 l 281 388 q 313 386 329 386 q 404 386 439 429 q 474 472 474 563 q 474 620 449 646 q 425 673 372 673 q 366 673 354 672 q 342 671 324 670 z"},"K":{"x_min":0,"x_max":720,"ha":720,"o":"m 98 718 q 154 715 189 714 q 224 713 249 713 q 273 713 307 714 q 341 715 398 718 l 398 672 q 355 670 340 659 q 324 647 317 604 l 275 348 q 408 476 472 549 q 536 622 536 646 q 536 658 525 664 q 514 670 489 672 l 489 718 q 504 717 531 716 q 582 713 603 713 q 615 713 650 715 q 685 717 705 718 l 705 672 q 704 672 702 673 q 700 673 695 673 q 651 673 522 530 q 463 463 426 424 q 530 279 618 120 q 627 103 631 97 q 648 66 668 56 q 688 45 725 45 l 725 0 q 696 1 644 3 q 592 5 573 5 q 554 5 497 3 q 440 1 407 0 l 407 45 q 441 45 453 51 q 465 56 465 70 q 465 90 446 126 q 428 163 363 262 l 322 325 l 264 277 l 240 131 q 237 110 236 101 q 235 92 235 86 q 235 64 247 56 q 259 48 308 45 l 308 0 q 241 3 207 4 q 173 5 151 5 q 129 5 94 4 q 60 3 -5 0 l -5 45 q 40 46 57 58 q 73 69 80 113 l 157 586 q 160 602 161 616 q 163 630 163 638 q 163 655 149 663 q 136 670 98 672 z"},"R":{"x_min":0,"x_max":733,"ha":733,"o":"m 329 675 l 282 390 q 287 390 304 388 q 321 387 333 387 q 414 387 458 431 q 503 475 503 553 q 503 615 471 645 q 439 675 374 675 l 347 675 z m 99 719 q 142 717 177 716 q 213 715 236 715 q 280 715 344 717 q 409 719 430 719 q 550 719 609 676 q 669 633 669 546 q 669 461 609 415 q 548 368 432 363 q 513 345 549 308 q 586 271 586 208 q 586 187 582 154 q 578 122 578 110 q 578 88 588 75 q 598 63 615 63 q 633 63 650 78 q 667 92 685 123 l 719 101 q 689 46 645 18 q 600 -10 544 -10 q 485 -10 453 21 q 420 52 420 107 q 420 128 427 174 q 435 220 435 245 q 435 299 405 320 q 375 341 296 341 l 275 341 l 240 131 q 237 114 236 99 q 234 83 234 80 q 234 62 248 54 q 262 47 303 45 l 303 0 q 242 3 207 4 q 172 5 151 5 q 130 5 97 4 q 65 3 2 0 l 2 45 q 43 46 59 57 q 74 68 81 110 l 158 586 q 161 602 162 616 q 164 631 164 638 q 164 655 152 663 q 139 670 99 675 z"},"T":{"x_min":0,"x_max":704,"ha":704,"o":"m 82 722 q 115 720 147 719 q 179 718 210 718 l 620 718 q 648 718 674 719 q 700 720 726 722 q 725 672 724 619 q 723 567 723 511 l 683 511 l 683 526 q 683 606 655 639 q 626 672 557 672 l 478 672 l 392 138 q 387 110 385 98 q 384 86 384 83 q 384 63 401 54 q 418 45 455 45 l 473 45 l 473 0 q 406 3 364 4 q 322 5 292 5 q 271 5 236 4 q 202 3 130 0 l 130 45 l 145 45 q 187 45 204 57 q 222 70 228 111 l 320 672 l 244 672 q 166 672 127 639 q 89 607 72 527 l 31 527 q 35 543 44 578 q 69 670 82 722 z"},"P":{"x_min":0,"x_max":677,"ha":677,"o":"m 271 304 l 242 131 q 239 115 238 102 q 236 88 236 81 q 236 60 253 52 q 271 45 325 45 l 325 0 q 263 2 223 4 q 182 5 153 5 q 133 5 101 4 q 68 3 0 0 l 0 45 q 42 46 57 57 q 73 68 80 110 l 157 586 q 160 602 161 616 q 163 631 163 638 q 163 655 150 663 q 138 670 98 674 l 98 719 q 139 717 169 717 q 200 716 220 716 q 242 716 299 718 q 357 719 393 719 q 523 719 591 667 q 659 616 659 517 q 659 409 584 354 q 509 300 361 300 q 337 300 280 303 q 274 304 271 304 z m 330 674 l 279 355 q 284 355 293 354 q 316 353 325 353 q 413 353 452 398 q 492 442 492 540 q 492 609 461 642 q 429 674 362 674 l 340 674 z"},"|":{"x_min":0,"x_max":500,"ha":500,"o":"m 200 764 l 301 764 l 301 -236 l 200 -236 z"},"t":{"x_min":0,"x_max":389,"ha":389,"o":"m 152 619 l 289 619 l 255 448 l 376 448 l 369 403 l 245 403 l 187 119 q 185 110 184 102 q 183 94 183 89 q 183 69 193 59 q 203 48 222 48 q 250 48 275 72 q 300 97 327 150 l 356 133 q 322 58 276 23 q 230 -11 164 -11 q 106 -11 75 15 q 44 41 44 88 q 44 98 46 111 q 47 124 51 140 l 106 403 l 15 403 l 23 448 l 116 448 z"},"M":{"x_min":0,"x_max":924,"ha":924,"o":"m 98 718 q 143 715 176 714 q 208 713 234 713 q 247 713 269 714 q 291 715 350 718 l 438 233 l 685 718 q 690 718 700 717 q 774 714 805 714 q 832 714 899 717 q 915 718 923 718 l 923 672 l 918 672 q 880 672 865 659 q 850 646 842 600 l 769 130 q 766 113 765 101 q 763 90 763 86 q 763 62 777 54 q 791 46 840 45 l 840 0 q 776 3 741 4 q 706 5 683 5 q 661 5 626 4 q 591 3 522 0 l 522 45 q 567 45 585 60 q 602 75 610 127 l 686 615 l 390 28 l 323 11 l 214 609 l 120 127 q 117 111 115 100 q 113 88 113 85 q 113 63 128 54 q 143 46 190 45 l 190 0 q 150 2 125 4 q 99 5 80 5 q 69 5 49 4 q 30 3 -20 0 l -20 45 q 24 46 42 60 q 59 74 70 129 l 160 588 q 163 604 165 618 q 167 632 167 639 q 167 656 153 663 q 139 670 98 672 z"},"g":{"x_min":0,"x_max":562,"ha":562,"o":"m 360 377 q 355 406 339 423 q 323 439 300 439 q 273 439 249 419 q 225 399 206 362 q 185 321 171 265 q 158 209 158 162 q 158 126 171 106 q 184 87 208 87 q 243 87 283 135 q 323 184 333 238 z m 372 438 l 384 484 l 521 484 q 495 361 464 189 q 434 16 421 -27 q 393 -124 321 -177 q 249 -231 147 -231 q 65 -231 16 -198 q -33 -166 -33 -112 q -33 -83 -14 -62 q 4 -42 31 -42 q 55 -42 70 -58 q 85 -74 85 -100 q 85 -114 78 -133 q 71 -153 71 -159 q 71 -171 89 -180 q 108 -189 136 -189 q 203 -189 242 -124 q 281 -59 315 122 q 276 65 232 38 q 189 10 139 10 q 79 10 45 51 q 11 93 11 165 q 11 221 32 282 q 52 343 87 391 q 123 440 169 467 q 216 493 267 493 q 301 493 327 479 q 353 466 372 438 z"},"j":{"x_min":0,"x_max":354,"ha":354,"o":"m 226 720 q 258 720 279 701 q 300 682 300 653 q 300 616 271 588 q 243 561 205 561 q 181 561 162 582 q 144 603 144 630 q 144 669 167 695 q 190 720 226 720 z m 279 332 l 211 20 q 195 -49 178 -85 q 161 -121 133 -150 q 96 -189 48 -210 q 1 -232 -46 -232 q -101 -232 -136 -203 q -172 -174 -172 -130 q -172 -104 -154 -86 q -137 -68 -111 -68 q -83 -68 -65 -90 q -47 -112 -47 -147 q -47 -152 -49 -169 q -50 -177 -51 -182 q -45 -187 -40 -188 q -35 -190 -30 -190 q 21 -190 64 2 l 66 9 l 148 373 q 149 378 149 383 q 150 388 150 393 q 150 411 143 420 q 136 429 121 429 q 101 429 78 406 q 56 384 35 343 l 6 361 q 38 424 83 455 q 128 487 185 487 q 234 487 262 463 q 289 439 289 396 q 289 377 280 338 q 279 333 279 332 z"},"i":{"x_min":0,"x_max":363,"ha":363,"o":"m 226 720 q 258 720 279 701 q 300 682 300 653 q 300 616 271 588 q 243 561 205 561 q 181 561 162 582 q 144 603 144 630 q 144 669 167 695 q 190 720 226 720 z m 267 332 l 205 123 q 202 113 201 104 q 199 95 199 87 q 199 70 206 62 q 212 53 226 53 q 246 53 267 76 q 289 98 311 142 l 341 127 q 306 57 263 24 q 220 -9 162 -9 q 114 -9 85 16 q 56 41 56 83 q 56 94 59 108 q 61 123 66 138 l 132 361 q 134 368 135 375 q 136 383 136 392 q 136 409 130 417 q 123 426 110 426 q 92 426 71 405 q 49 384 26 344 l -3 362 q 28 421 76 454 q 123 487 176 487 q 224 487 251 464 q 279 440 279 400 q 279 387 276 370 q 273 353 267 332 z"},"y":{"x_min":0,"x_max":611,"ha":611,"o":"m 268 336 l 231 208 q 230 206 229 200 q 214 148 214 126 q 214 111 220 104 q 226 97 238 97 q 270 97 321 165 q 373 233 390 307 l 430 478 l 569 478 l 489 112 q 446 -82 376 -156 q 306 -231 178 -231 q 103 -231 53 -200 q 4 -168 4 -123 q 4 -100 21 -84 q 38 -69 62 -69 q 94 -69 114 -90 q 133 -110 133 -145 q 133 -150 132 -157 q 131 -163 129 -175 q 140 -182 152 -186 q 164 -189 178 -189 q 242 -189 281 -117 q 320 -46 359 162 q 312 86 262 49 q 212 11 160 11 q 116 11 93 36 q 69 60 69 106 q 69 121 73 144 q 77 167 85 194 l 130 348 q 134 364 137 376 q 139 389 139 396 q 139 410 132 417 q 124 425 111 425 q 92 425 70 403 q 49 380 27 337 l -3 352 q 31 422 73 455 q 115 488 172 488 q 223 488 251 464 q 280 441 280 399 q 280 389 277 375 q 275 361 268 336 z"},"@":{"x_min":0,"x_max":986,"ha":986,"o":"m 574 156 q 544 107 509 83 q 473 60 430 60 q 361 60 322 104 q 282 149 282 227 q 282 283 307 335 q 331 388 377 431 q 411 462 449 479 q 488 495 528 495 q 575 495 601 473 q 628 451 636 406 l 660 486 l 753 486 l 668 184 l 667 181 q 660 152 660 138 q 660 115 670 102 q 680 89 697 89 q 713 89 738 101 q 764 113 786 132 q 836 175 863 238 q 890 301 890 377 q 890 511 798 595 q 706 678 559 678 q 492 678 431 660 q 371 641 320 605 q 235 546 190 454 q 144 363 144 251 q 144 87 247 -9 q 350 -105 523 -105 q 604 -105 679 -80 q 754 -56 829 -4 l 848 -29 q 774 -84 693 -112 q 611 -139 523 -139 q 432 -139 353 -117 q 275 -94 218 -52 q 144 3 104 84 q 65 165 65 261 q 65 337 90 407 q 116 477 165 536 q 236 621 334 667 q 433 712 547 712 q 717 712 820 620 q 922 527 922 374 q 922 295 893 228 q 864 160 810 111 q 781 85 748 72 q 715 58 681 58 q 633 58 605 83 q 578 109 574 156 z m 546 463 q 516 463 491 441 q 466 419 442 371 q 414 315 399 266 q 385 217 385 177 q 385 138 402 115 q 418 93 447 93 q 478 93 508 123 q 537 153 564 212 q 583 257 595 302 q 606 348 606 382 q 606 421 590 442 q 575 463 546 463 z"},".":{"x_min":0,"x_max":309,"ha":309,"o":"m 129 151 q 161 151 184 128 q 207 105 207 73 q 207 40 184 17 q 161 -5 127 -5 q 96 -5 73 19 q 51 42 51 75 q 51 105 74 128 q 98 151 129 151 z"},"p":{"x_min":0,"x_max":617,"ha":617,"o":"m 219 106 q 227 84 244 71 q 262 58 285 58 q 311 58 334 76 q 356 94 374 129 q 397 173 412 233 q 427 293 427 339 q 427 375 414 394 q 401 414 378 414 q 346 414 315 378 q 284 342 250 265 z m 255 350 q 290 417 337 452 q 384 488 438 488 q 502 488 538 445 q 574 402 574 325 q 574 190 501 95 q 429 0 325 0 q 289 0 260 15 q 232 30 210 60 l 175 -119 q 172 -136 171 -142 q 170 -148 170 -152 q 170 -173 183 -180 q 195 -187 249 -188 l 242 -228 q 232 -228 215 -227 q 126 -224 93 -224 q 65 -224 -9 -227 q -32 -228 -44 -228 l -37 -188 l -26 -188 q 21 -188 33 -128 q 34 -123 34 -121 l 127 357 q 130 372 131 384 q 133 396 133 402 q 133 417 126 425 q 120 433 108 433 q 90 433 66 411 q 42 390 16 350 l -10 370 q 30 433 77 463 q 123 493 180 493 q 222 493 243 472 q 264 451 264 409 q 264 403 262 389 q 260 375 255 350 z"},"X":{"x_min":0,"x_max":687,"ha":687,"o":"m 54 718 q 125 715 159 714 q 193 713 214 713 q 238 713 276 714 q 313 715 380 718 l 380 672 l 371 672 q 338 672 324 666 q 310 659 310 645 q 310 637 313 626 q 316 615 322 603 l 390 457 l 512 607 q 522 620 526 628 q 530 637 530 645 q 530 659 517 666 q 504 673 479 673 l 474 673 l 474 718 q 512 715 536 714 q 561 713 578 713 q 595 713 619 714 q 644 715 682 718 l 682 672 q 652 671 627 655 q 602 639 561 590 l 412 413 l 538 145 q 542 137 549 122 q 584 45 648 45 l 648 0 q 571 3 540 4 q 509 5 492 5 q 463 5 422 4 q 382 2 320 0 l 320 45 q 354 45 369 51 q 384 58 384 72 q 384 80 381 91 q 378 102 372 115 l 293 291 l 155 110 q 147 99 144 92 q 141 85 141 77 q 141 63 154 56 q 167 48 194 45 l 194 0 q 149 3 125 4 q 102 5 87 5 q 73 5 51 4 q 28 3 -18 0 l -18 45 q 34 47 96 121 l 99 125 l 273 335 l 167 573 q 139 634 116 653 q 94 672 57 672 l 54 672 z"},"*":{"x_min":0,"x_max":483,"ha":483,"o":"m 244 511 l 267 511 q 271 497 279 472 q 295 422 295 409 q 295 390 285 377 q 276 365 256 358 q 236 365 226 377 q 217 389 217 409 q 217 423 233 475 q 240 498 244 511 z m 224 537 l 235 517 q 225 506 208 488 q 159 434 133 434 q 124 434 114 438 q 104 442 96 450 q 96 454 95 457 q 95 460 95 466 q 95 491 116 505 q 137 519 224 537 z m 288 537 q 293 536 303 534 q 417 509 417 464 q 417 464 416 459 q 416 454 415 450 q 406 442 397 438 q 388 434 379 434 q 354 434 301 492 q 286 509 277 518 z m 235 567 l 224 548 q 215 550 198 554 q 95 577 95 619 q 95 623 95 627 q 96 630 96 634 q 106 643 115 647 q 124 651 131 651 q 159 651 210 594 q 226 577 235 567 z m 416 634 q 417 630 417 627 q 417 624 417 621 q 417 575 301 551 q 292 549 288 548 l 278 568 q 288 578 304 597 q 353 651 381 651 q 389 651 398 646 q 407 642 416 634 z m 256 727 q 276 720 285 708 q 295 696 295 676 q 295 665 281 620 q 272 591 267 574 l 244 574 q 240 587 233 609 q 217 663 217 676 q 217 696 226 708 q 235 720 256 727 z"},"Y":{"x_min":0,"x_max":608,"ha":608,"o":"m -3 718 q 66 715 97 714 q 127 713 146 713 q 170 713 207 714 q 244 715 307 718 l 307 672 q 271 668 261 662 q 250 656 250 643 q 250 637 253 627 q 256 618 262 604 l 366 367 l 504 606 q 510 617 513 627 q 517 638 517 645 q 517 659 503 665 q 489 671 454 672 l 454 718 q 492 715 516 714 q 540 713 556 713 q 572 713 595 714 q 618 715 656 718 l 657 672 q 629 670 610 657 q 591 645 564 600 l 389 317 l 359 131 q 356 117 355 105 q 354 94 354 85 q 354 64 366 56 q 378 48 427 45 l 427 0 q 363 3 328 4 q 292 5 270 5 q 248 5 213 4 q 178 3 112 0 l 112 45 q 157 46 174 58 q 190 70 197 113 l 228 300 l 95 591 q 74 637 53 653 q 33 668 -3 672 z"},"c":{"x_min":0,"x_max":521,"ha":521,"o":"m 437 156 l 467 136 q 434 63 376 27 q 318 -9 235 -9 q 132 -9 74 44 q 16 97 16 192 q 16 317 104 405 q 191 493 315 493 q 393 493 440 458 q 487 423 487 367 q 487 335 469 315 q 452 295 425 295 q 398 295 382 313 q 366 331 366 361 q 366 375 369 396 q 372 416 372 421 q 372 435 359 442 q 346 450 323 450 q 259 450 214 374 q 170 297 170 185 q 170 116 200 78 q 230 40 284 40 q 330 40 371 71 q 412 102 437 156 z"},"!":{"x_min":0,"x_max":357,"ha":357,"o":"m 136 151 q 168 151 191 128 q 214 105 214 73 q 214 40 191 18 q 168 -5 134 -5 q 104 -5 81 18 q 58 42 58 73 q 58 104 81 128 q 104 151 136 151 z m 241 727 q 266 715 281 687 q 295 659 295 623 q 295 584 241 417 q 199 286 174 201 l 130 208 q 134 282 137 405 q 142 618 164 664 q 176 689 198 707 q 219 724 241 727 z"},"/":{"x_min":0,"x_max":340,"ha":340,"o":"m 299 727 l 369 727 l 5 -93 l -66 -93 z"},"[":{"x_min":0,"x_max":391,"ha":391,"o":"m 409 736 l 402 693 q 379 687 354 683 q 329 680 302 680 l 290 680 l 147 -144 l 156 -144 q 176 -144 198 -147 q 221 -150 248 -156 l 241 -198 q 216 -192 189 -189 q 162 -186 129 -186 q 103 -186 83 -189 q 63 -192 44 -198 l 204 736 q 225 729 246 726 q 267 723 289 723 q 317 723 346 726 q 375 729 409 736 z"},"6":{"x_min":0,"x_max":618,"ha":618,"o":"m 188 294 q 186 268 184 250 q 183 233 183 221 q 183 135 211 86 q 239 38 288 38 q 343 38 379 95 q 415 153 415 245 q 415 306 389 339 q 363 373 317 373 q 286 373 256 354 q 225 336 188 294 z m 493 612 q 471 638 448 649 q 425 660 395 660 q 311 660 259 582 q 207 504 191 353 q 232 398 273 420 q 314 441 362 441 q 450 441 507 385 q 564 330 564 245 q 564 141 482 67 q 399 -8 284 -8 q 168 -8 102 70 q 36 147 36 285 q 36 369 61 445 q 86 521 133 578 q 182 639 248 672 q 314 705 386 705 q 463 705 519 659 q 574 614 574 552 q 574 519 556 499 q 538 478 509 478 q 483 478 467 494 q 451 510 451 536 q 451 560 462 580 q 474 601 493 612 z"},"r":{"x_min":0,"x_max":477,"ha":477,"o":"m 244 334 q 277 407 319 447 q 360 486 404 486 q 443 486 466 464 q 488 442 488 403 q 488 367 469 344 q 450 322 419 322 q 394 322 377 338 q 360 354 360 378 q 360 383 360 391 q 361 399 361 402 q 361 410 359 413 q 357 415 352 415 q 323 415 289 352 q 254 290 233 192 l 190 0 l 49 0 l 128 355 q 130 366 132 376 q 133 386 133 395 q 133 411 126 419 q 120 428 109 428 q 88 428 65 408 q 42 388 17 346 l -11 365 q 25 427 70 457 q 114 487 171 487 q 215 487 236 468 q 257 449 257 409 q 257 400 253 380 q 250 360 244 334 z"},"2":{"x_min":0,"x_max":618,"ha":618,"o":"m 90 72 q 143 104 180 117 q 217 131 249 131 q 279 131 339 121 q 400 112 430 112 q 464 112 485 132 q 505 153 521 207 l 557 198 q 538 68 509 29 q 479 -10 409 -10 q 357 -10 267 7 q 177 23 141 23 q 118 23 92 16 q 66 9 29 -8 l 2 39 q 44 92 95 142 q 146 192 209 242 l 220 250 q 405 400 405 507 q 405 574 368 612 q 331 650 266 650 q 204 650 159 613 q 114 577 114 530 q 114 521 114 517 q 115 512 115 509 l 126 509 q 167 509 193 487 q 219 464 219 429 q 219 400 201 382 q 182 364 152 364 q 110 364 83 402 q 55 440 55 498 q 55 591 124 649 q 193 708 305 708 q 423 708 490 650 q 558 591 558 489 q 558 422 520 369 q 482 315 404 271 q 379 257 326 230 q 162 148 90 72 z"},"{":{"x_min":0,"x_max":500,"ha":500,"o":"m 416 740 l 416 710 q 357 709 335 684 q 314 658 314 581 l 314 516 q 314 406 288 366 q 262 326 192 310 q 262 294 288 255 q 314 215 314 105 l 314 39 q 314 -38 335 -63 q 357 -89 416 -90 l 416 -119 q 301 -119 260 -84 q 218 -48 218 50 l 218 144 q 218 225 190 255 q 163 285 87 292 l 87 329 q 163 336 190 366 q 218 396 218 477 l 218 571 q 218 669 260 705 q 301 740 416 740 z"},"9":{"x_min":0,"x_max":618,"ha":618,"o":"m 426 408 q 429 431 431 454 q 432 476 432 498 q 432 575 406 617 q 381 659 335 659 q 278 659 240 601 q 202 542 202 452 q 202 392 228 357 q 253 323 297 323 q 330 323 361 344 q 392 364 426 408 z m 115 85 q 131 64 157 52 q 184 41 217 41 q 295 41 345 113 q 395 186 417 334 q 385 291 342 269 q 299 247 247 247 q 164 247 112 300 q 61 354 61 440 q 61 550 143 628 q 226 707 342 707 q 446 707 510 631 q 574 556 574 429 q 574 343 547 260 q 519 178 471 120 q 422 62 355 29 q 289 -4 219 -4 q 140 -4 88 39 q 36 81 36 143 q 36 175 54 196 q 73 217 101 217 q 127 217 143 201 q 158 186 158 160 q 158 137 147 118 q 136 98 115 85 z"}," ":{"x_min":0,"x_max":309,"ha":309,"o":""},"I":{"x_min":0,"x_max":399,"ha":399,"o":"m 94 718 q 151 715 188 714 q 225 713 250 713 q 275 713 310 714 q 346 715 404 718 l 404 672 q 359 671 343 660 q 326 648 319 604 l 242 131 q 239 114 237 103 q 236 92 236 85 q 236 64 248 56 q 261 48 310 45 l 310 0 q 246 3 211 4 q 175 5 153 5 q 131 5 97 4 q 62 3 -5 0 l -5 45 q 40 46 57 58 q 73 69 80 113 l 157 586 q 160 607 162 619 q 163 631 163 636 q 163 655 149 663 q 136 670 94 672 z"},"H":{"x_min":0,"x_max":829,"ha":829,"o":"m 157 586 q 160 602 161 616 q 163 631 163 638 q 163 656 150 663 q 136 670 98 672 l 98 718 q 154 715 190 714 q 226 713 250 713 q 275 713 312 714 q 349 715 406 718 l 406 672 q 357 670 342 659 q 326 648 319 604 l 285 397 l 558 397 l 588 586 q 591 604 593 619 q 595 633 595 638 q 595 656 582 663 q 568 670 530 672 l 530 718 q 585 715 619 714 q 653 713 677 713 q 703 713 739 714 q 774 715 826 718 l 826 672 q 787 670 772 659 q 757 647 750 608 l 674 131 q 670 112 669 99 q 667 86 667 81 q 667 62 680 55 q 694 47 732 45 l 732 0 q 669 3 635 4 q 602 5 580 5 q 558 5 523 4 q 487 3 424 0 l 424 45 q 474 47 490 59 q 505 70 512 113 l 550 348 l 277 348 l 242 131 q 239 111 238 98 q 236 85 236 81 q 236 62 250 55 q 263 47 301 45 l 301 0 q 241 3 208 4 q 174 5 153 5 q 133 5 100 4 q 68 3 5 0 l 5 45 q 42 46 58 58 q 73 69 80 110 z"},"4":{"x_min":0,"x_max":618,"ha":618,"o":"m 462 719 l 499 678 q 366 568 262 468 q 159 368 92 285 l 334 285 l 378 541 l 522 575 l 473 285 l 562 286 l 526 184 l 456 184 l 447 123 q 446 113 445 106 q 445 99 445 93 q 445 67 458 56 q 472 45 503 45 l 512 45 l 505 0 q 438 3 403 4 q 367 5 343 5 q 324 5 292 4 q 260 3 190 0 l 197 45 l 203 45 q 259 45 280 63 q 302 82 310 136 l 317 184 l 11 184 l 17 269 q 152 420 256 526 q 361 631 462 719 z"},"~":{"x_min":0,"x_max":833,"ha":833,"o":"m 747 392 l 747 284 q 696 250 651 233 q 606 217 562 217 q 540 217 517 221 q 495 225 472 232 q 460 236 438 244 q 331 281 275 281 q 233 281 188 262 q 143 244 87 204 l 87 312 q 139 347 187 365 q 234 382 276 382 q 333 382 418 354 l 420 353 q 429 350 447 344 q 522 317 564 317 q 605 317 649 335 q 693 353 747 392 z"},"D":{"x_min":0,"x_max":787,"ha":787,"o":"m 329 668 l 229 52 q 238 51 254 50 q 290 47 306 47 q 373 47 411 60 q 449 74 480 106 q 524 152 551 241 q 578 331 578 435 q 578 554 533 612 q 487 670 394 670 q 382 670 348 668 q 336 668 329 668 z m 98 718 q 152 716 194 716 q 236 715 266 715 q 269 715 319 716 q 369 718 417 718 q 578 718 665 636 q 753 554 753 405 q 753 314 722 234 q 691 153 635 99 q 582 47 511 24 q 439 0 335 0 q 310 0 256 1 q 203 3 175 3 q 156 3 114 2 q 72 1 5 0 l 5 47 q 43 47 58 58 q 73 69 80 110 l 157 586 q 160 602 161 616 q 163 630 163 638 q 163 656 149 663 q 135 670 98 670 z"},"^":{"x_min":0,"x_max":1000,"ha":1000,"o":"m 442 714 l 557 714 l 797 438 l 742 438 l 499 620 l 256 438 l 201 438 z"},"0":{"x_min":0,"x_max":618,"ha":618,"o":"m 351 661 q 280 661 229 535 q 178 408 178 220 q 178 129 201 84 q 224 38 270 38 q 307 38 336 70 q 365 102 388 168 q 413 241 426 325 q 439 408 439 495 q 439 579 417 620 q 396 661 351 661 z m 356 708 q 461 708 524 633 q 586 559 586 431 q 586 242 492 116 q 397 -9 260 -9 q 159 -9 95 72 q 31 153 31 284 q 31 467 124 587 q 218 708 356 708 z"},"F":{"x_min":0,"x_max":637,"ha":637,"o":"m 98 718 l 625 718 l 624 515 l 578 515 l 578 532 q 578 613 552 641 q 526 669 448 669 l 329 669 l 284 390 l 325 390 q 396 390 422 410 q 447 431 456 490 l 499 490 q 487 430 478 364 q 468 297 461 222 l 418 222 q 418 227 419 237 q 422 266 422 277 q 422 316 406 329 q 389 342 334 342 l 276 342 l 242 131 q 239 112 238 98 q 236 85 236 78 q 236 60 252 53 q 268 46 324 45 l 324 0 q 258 3 217 4 q 176 5 146 5 q 125 5 9 0 l 0 0 l 0 45 q 42 46 57 57 q 73 68 80 110 l 157 586 q 160 602 161 616 q 163 630 163 638 q 163 655 151 662 q 138 669 107 669 l 98 669 z"},"`":{"x_min":0,"x_max":500,"ha":500,"o":"m 274 701 l 395 548 l 344 548 l 211 638 q 193 650 185 662 q 176 674 176 687 q 176 707 189 720 q 203 734 221 734 q 235 734 248 726 q 261 718 274 701 z"},"k":{"x_min":0,"x_max":613,"ha":613,"o":"m 303 743 l 209 281 q 263 384 324 439 q 386 493 448 493 q 487 493 512 472 q 537 450 537 416 q 537 362 478 312 q 418 261 320 233 q 379 228 403 214 q 427 199 438 164 q 443 148 447 116 q 454 57 485 57 q 505 57 522 76 q 540 95 560 141 l 589 126 q 558 55 520 22 q 481 -10 427 -10 q 369 -10 340 23 q 311 57 311 125 q 311 133 312 145 q 312 157 312 161 q 312 190 302 204 q 292 218 269 221 l 276 253 q 343 269 379 301 q 415 334 415 379 q 415 400 407 409 q 400 419 383 419 q 365 419 344 405 q 324 390 300 360 q 257 307 221 238 q 186 170 179 134 l 152 0 l 14 0 l 138 606 q 142 625 144 638 q 145 650 145 661 q 145 696 83 699 q 78 699 76 699 l 83 738 q 91 738 106 737 q 154 736 172 736 q 197 736 227 738 q 257 739 303 743 z"},"u":{"x_min":0,"x_max":656,"ha":656,"o":"m 272 341 l 212 153 q 205 129 201 114 q 198 98 198 87 q 198 73 204 66 q 210 59 223 59 q 261 59 317 131 q 373 202 391 286 l 434 478 l 575 478 l 497 123 q 494 108 493 99 q 491 89 491 83 q 491 68 498 59 q 504 50 515 50 q 536 50 559 70 q 582 90 607 132 l 635 113 q 599 51 554 21 q 510 -9 453 -9 q 408 -9 385 11 q 361 31 361 69 q 361 82 364 100 q 367 119 376 156 q 321 69 269 30 q 217 -9 158 -9 q 112 -9 85 18 q 57 44 57 88 q 57 105 61 125 q 65 146 74 175 l 129 350 q 130 353 131 356 q 140 386 140 397 q 140 410 133 417 q 126 425 114 425 q 95 425 73 401 q 50 378 28 336 l -3 352 q 34 422 76 454 q 118 487 173 487 q 224 487 253 463 q 282 439 282 397 q 282 385 280 371 q 277 356 272 341 z"},"]":{"x_min":0,"x_max":391,"ha":391,"o":"m 115 738 q 141 730 169 727 q 197 723 227 723 q 252 723 272 727 q 292 730 312 738 l 152 -200 q 131 -193 110 -189 q 89 -186 67 -186 q 38 -186 8 -189 q -21 -193 -53 -200 l -45 -156 q -24 -149 -1 -146 q 21 -143 47 -143 l 66 -143 l 209 681 l 202 681 q 184 681 161 684 q 139 687 108 694 z"},"U":{"x_min":0,"x_max":781,"ha":781,"o":"m 98 718 q 154 715 190 714 q 226 713 250 713 q 275 713 312 714 q 349 715 406 718 l 406 672 q 357 670 341 659 q 325 647 318 604 l 268 297 q 259 241 257 218 q 254 194 254 178 q 254 114 291 81 q 327 48 397 48 q 453 48 494 71 q 536 93 560 137 q 588 186 611 339 l 613 350 l 650 586 q 652 600 654 612 q 655 625 655 634 q 655 655 643 662 q 630 670 578 672 l 578 718 q 624 715 648 714 q 672 713 688 713 q 702 713 725 714 q 748 715 790 718 l 790 672 q 745 671 728 659 q 710 646 704 604 l 649 263 q 626 121 553 56 q 480 -9 345 -9 q 222 -9 158 39 q 94 87 94 180 q 94 211 106 288 q 109 302 110 309 l 156 586 q 157 590 158 597 q 163 631 163 638 q 163 656 150 663 q 137 670 98 672 z"},"o":{"x_min":0,"x_max":565,"ha":565,"o":"m 308 493 q 406 493 463 435 q 521 377 521 281 q 521 161 436 76 q 351 -9 229 -9 q 133 -9 75 50 q 16 108 16 203 q 16 319 103 406 q 189 493 308 493 z m 376 357 q 376 404 360 428 q 344 452 313 452 q 282 452 257 429 q 231 405 211 358 q 188 305 175 242 q 161 180 161 128 q 161 83 179 59 q 197 34 230 34 q 258 34 283 58 q 308 83 328 128 q 350 178 363 241 q 376 305 376 357 z"},"N":{"x_min":0,"x_max":781,"ha":781,"o":"m 68 718 q 108 715 134 714 q 160 713 178 713 q 196 713 220 714 q 245 715 284 718 l 593 189 l 655 569 q 658 587 660 602 q 662 616 662 622 q 662 649 646 660 q 629 671 584 672 l 584 718 q 619 715 646 714 q 674 713 696 713 q 709 713 732 714 q 754 715 794 718 l 794 672 q 752 671 734 655 q 717 638 708 585 l 612 6 l 523 -5 l 199 554 l 133 148 q 132 143 130 132 q 126 101 126 96 q 126 68 142 57 q 159 46 203 45 l 203 0 q 160 3 135 4 q 110 5 92 5 q 80 5 59 4 q 39 3 -6 0 l -6 45 q 37 46 54 62 q 71 79 80 132 l 156 588 q 158 599 159 608 q 160 618 160 624 q 160 651 141 661 q 121 672 68 672 z"},"+":{"x_min":0,"x_max":833,"ha":833,"o":"m 367 596 l 466 596 l 466 347 l 709 347 l 709 250 l 466 250 l 466 0 l 367 0 l 367 250 l 124 250 l 124 347 l 367 347 z"},"G":{"x_min":0,"x_max":756,"ha":756,"o":"m 649 636 l 666 678 l 707 676 q 697 628 688 573 q 679 519 669 447 l 625 447 q 626 462 627 469 q 627 476 627 482 q 627 570 584 621 q 542 672 468 672 q 349 672 278 564 q 207 457 207 275 q 207 159 249 99 q 291 38 370 38 q 401 38 429 48 q 458 59 487 81 l 501 169 q 502 178 503 186 q 504 193 504 200 q 504 222 490 229 q 477 236 423 236 l 423 282 q 475 279 511 278 q 548 277 576 277 q 599 277 634 278 q 669 279 728 282 l 728 236 q 684 234 670 222 q 656 211 648 157 l 624 0 l 581 0 l 576 51 q 525 21 470 6 q 415 -9 354 -9 q 201 -9 116 74 q 31 156 31 306 q 31 487 144 607 q 257 727 427 727 q 498 727 553 704 q 608 682 649 636 z"},"q":{"x_min":0,"x_max":562,"ha":562,"o":"m 367 371 q 363 402 346 420 q 329 438 305 438 q 277 438 253 418 q 228 398 208 360 q 186 317 172 262 q 158 207 158 159 q 158 123 172 103 q 186 83 211 83 q 247 83 287 130 q 327 178 339 235 z m 404 407 q 429 421 450 441 q 471 461 489 488 l 531 488 l 406 -112 q 406 -113 405 -115 q 402 -136 402 -145 q 402 -167 413 -176 q 424 -186 452 -188 l 444 -228 q 435 -228 417 -227 q 334 -224 302 -224 q 268 -224 186 -227 q 170 -228 162 -228 l 170 -188 q 221 -186 238 -174 q 255 -162 262 -127 l 312 112 q 273 55 230 28 q 188 0 139 0 q 80 0 46 42 q 12 84 12 159 q 12 216 32 277 q 52 337 86 385 q 123 436 169 462 q 216 488 270 488 q 317 488 351 467 q 385 447 404 407 z"},"d":{"x_min":0,"x_max":614,"ha":614,"o":"m 373 350 q 368 383 351 400 q 334 418 307 418 q 280 418 256 400 q 232 381 213 346 q 189 303 174 247 q 158 191 158 148 q 158 109 172 89 q 186 69 212 69 q 246 69 288 117 q 331 166 343 220 z m 601 743 l 464 130 q 461 120 460 112 q 459 103 459 97 q 459 79 466 69 q 474 59 486 59 q 503 59 522 79 q 542 100 563 142 l 593 127 q 558 55 516 23 q 474 -9 416 -9 q 374 -9 351 12 q 328 34 328 73 q 328 86 330 99 q 332 112 335 126 q 293 60 244 25 q 194 -9 139 -9 q 78 -9 43 31 q 9 71 9 141 q 9 198 30 258 q 51 318 89 369 q 129 423 178 451 q 226 480 276 480 q 317 480 344 464 q 370 448 387 413 l 431 606 q 435 622 437 637 q 439 651 439 662 q 439 697 375 699 q 368 699 364 699 l 371 738 q 379 738 395 737 q 446 736 465 736 q 488 736 519 738 q 550 739 601 743 z"},"1":{"x_min":0,"x_max":418,"ha":418,"o":"m 353 705 l 255 163 q 251 138 249 122 q 247 105 247 95 q 247 66 262 56 q 276 45 316 45 l 331 45 l 324 0 q 253 3 215 4 q 177 5 151 5 q 130 5 96 4 q 61 3 -15 0 l -8 45 l 4 45 q 93 45 115 171 l 115 172 l 176 519 q 179 534 181 549 q 182 563 182 575 q 182 592 176 599 q 170 606 156 606 q 152 606 142 604 q 133 603 123 601 l 59 587 l 50 625 q 130 641 206 661 q 281 681 353 705 z"},"5":{"x_min":0,"x_max":618,"ha":618,"o":"m 539 709 l 568 684 q 525 610 489 583 q 454 557 400 557 q 373 557 317 565 q 261 572 193 586 l 157 393 q 197 418 239 431 q 281 444 325 444 q 420 444 480 389 q 540 333 540 245 q 540 136 460 65 q 381 -6 260 -6 q 162 -6 98 41 q 35 87 35 157 q 35 195 53 218 q 71 241 101 241 q 129 241 147 223 q 165 205 165 176 q 165 150 152 130 q 139 109 113 93 q 131 70 159 58 q 187 46 221 46 q 294 46 343 104 q 391 162 391 250 q 391 312 358 348 q 326 385 270 385 q 242 385 212 374 q 181 363 144 339 l 102 367 l 161 713 q 274 693 354 682 q 434 671 469 671 q 494 671 508 679 q 523 688 539 709 z"}}}
